<?xml version="1.0" encoding="utf-8"?>
<!-- Generator: Adobe Illustrator 16.0.0, SVG Export Plug-In . SVG Version: 6.00 Build 0)  -->
<!DOCTYPE svg PUBLIC "-//W3C//DTD SVG 1.0//EN" "http://www.w3.org/TR/2001/REC-SVG-20010904/DTD/svg10.dtd">
<svg version="1.0" id="Layer_1" xmlns="http://www.w3.org/2000/svg" xmlns:xlink="http://www.w3.org/1999/xlink" x="0px" y="0px"
	 width="324.444px" height="261.481px" viewBox="0 0 324.444 261.481" enable-background="new 0 0 324.444 261.481"
	 xml:space="preserve">
<g>
	<path fill="#12100B" d="M40.128,216.408V41.045h244.316v173.877v1.485H40.128z M282.953,214.923v-1.488V214.923z M43.103,213.435
		h238.361V44.028H43.103V213.435z"/>
	<path fill="#12100B" d="M100.983,127.148c0,3.844-1.469,7.118-4.393,9.824c-2.931,2.701-6.447,4.052-10.563,4.052
		c-2.408,0-5.293-0.738-8.647-2.213c-0.895-0.403-1.562-0.604-2.009-0.604c-0.536,0-0.875,0.619-1.005,1.857
		c-0.046,0.639-0.337,0.959-0.876,0.959c-0.442,0-0.665-0.269-0.665-0.804c0-0.355,0.02-0.623,0.066-0.803
		c0.357-2.727,0.534-5.256,0.534-7.576c0-0.447-0.046-1.699-0.133-3.754c-0.044-0.274-0.068-0.626-0.068-1.075
		c0-0.67,0.265-1.005,0.805-1.005c0.445,0,0.762,0.547,0.94,1.629c1.162,8.031,4.939,12.049,11.332,12.049
		c2.723,0,4.833-0.773,6.331-2.312c1.499-1.545,2.25-3.721,2.25-6.538c0-2.503-0.729-4.639-2.182-6.405
		c-1.453-1.764-3.947-3.516-7.476-5.265c-4.244-2.089-7.196-4.131-8.85-6.097c-1.651-1.962-2.483-4.402-2.483-7.303
		c0-3.711,1.198-6.777,3.59-9.185c2.393-2.416,5.418-3.623,9.087-3.623c1.521,0,3.62,0.516,6.304,1.542
		c0.935,0.357,1.627,0.536,2.077,0.536c0.488,0,0.812-0.088,0.966-0.267c0.16-0.181,0.306-0.648,0.438-1.41
		c0.09-0.446,0.335-0.67,0.74-0.67c0.444,0,0.668,0.269,0.668,0.807c0,0.359-0.024,0.626-0.068,0.805
		c-0.132,1.069-0.199,2.369-0.199,3.884c0,2.148,0.11,3.842,0.337,5.096l0.061,1.073c0.049,0.494-0.155,0.74-0.597,0.74
		c-0.499,0-0.83-0.514-1.009-1.543c-0.495-2.634-1.653-4.836-3.487-6.604c-1.835-1.764-3.888-2.647-6.166-2.647
		c-2.233,0-4.013,0.716-5.332,2.143c-1.318,1.433-1.981,3.375-1.981,5.834c0,2.865,0.963,5.162,2.887,6.904
		c1.071,0.987,3.395,2.37,6.974,4.157c4.201,2.101,7.217,4.238,9.048,6.407C100.059,121.911,100.983,124.375,100.983,127.148"/>
	<path fill="#12100B" d="M144.622,139.785c0,0.377-0.337,0.567-1.005,0.567c-0.449,0-0.851-0.019-1.208-0.066l-8.513-0.267
		l-8.513,0.267c-0.313,0.048-0.654,0.066-1.009,0.066c-0.895,0-1.34-0.232-1.34-0.698c0-0.517,0.604-0.777,1.81-0.777
		c3.932-0.039,5.898-0.438,5.898-1.18c0-0.042-0.042-0.221-0.134-0.526l-0.55-1.775l-0.341-0.933
		c-0.403-1.39-1.384-4.452-2.949-9.194H112.44c-2.684,7.152-4.021,11.267-4.021,12.338c0,0.629,0.274,1.003,0.805,1.139
		c0.131,0.042,1.25,0.131,3.358,0.267c1.289,0.044,1.937,0.272,1.937,0.672c0,0.446-0.576,0.667-1.74,0.667
		c-2.056,0-4.449-0.09-7.17-0.261c-0.677-0.052-1.366-0.072-2.081-0.072c-0.712,0-1.408,0.077-2.078,0.223
		c-0.359,0.076-0.645,0.11-0.873,0.11c-0.624,0-0.937-0.199-0.937-0.602c0-0.405,0.703-0.627,2.113-0.674
		c1.406-0.042,2.423-0.254,3.049-0.641c0.62-0.381,1.115-1.104,1.473-2.187c5.751-16.497,10.429-29.752,14.039-39.75
		c0.104-0.528,0.31-1.121,0.623-1.78l0.292-1.222c0.127-0.49,0.304-0.74,0.532-0.74c0.134,0,0.247,0.136,0.335,0.403
		c0.578,1.743,1.9,5.385,3.953,10.928c1.613,4.339,5.611,15.218,12.003,32.652c0.353,1.011,0.812,1.653,1.373,1.928
		c0.56,0.276,1.707,0.433,3.454,0.479C144.04,139.192,144.622,139.402,144.622,139.785 M126.457,123.728
		c-0.724-2.007-1.928-5.342-3.616-9.993l-3.222-9.288c-1.881,4.939-4.146,11.375-6.793,19.28H126.457z"/>
	<path fill="#12100B" d="M188.058,94.3c0,0.447-0.556,0.648-1.675,0.602h-1.471h-1.21c-0.711,0-1.138,0.125-1.273,0.368
		c-0.133,0.245-0.201,0.996-0.201,2.243v38.559c0,2.364-0.022,3.75-0.064,4.148c-0.048,0.401-0.179,0.606-0.403,0.606
		c-0.265,0-0.576-0.249-0.934-0.74l-8.565-12.55c-4.967-7.314-11.004-16.451-18.123-27.407v37.54
		c0.046,0.585,0.383,0.956,1.016,1.108c0.635,0.16,2.15,0.259,4.54,0.309c0.585,0,0.88,0.173,0.88,0.532
		c0,0.447-0.58,0.668-1.742,0.668c-0.401,0-1.679-0.066-3.82-0.195c-0.718-0.052-1.407-0.072-2.079-0.072
		c0.042,0-0.352,0.046-1.175,0.134c-0.828,0.088-2.093,0.132-3.785,0.132h-0.676c-1.027,0-1.537-0.195-1.537-0.602
		c0-0.405,0.443-0.608,1.336-0.608c2.642-0.041,4.17-0.208,4.597-0.495c0.423-0.294,0.632-1.246,0.632-2.854v-33.108
		c0-3.713-0.753-6.035-2.274-6.978c-0.718-0.449-1.99-0.672-3.824-0.672c-1.165,0-1.74-0.234-1.74-0.709
		c0-0.418,0.333-0.635,1-0.635c0.896,0,2.038,0.046,3.422,0.138c1.384,0.09,2.123,0.135,2.211,0.135c0.13,0,0.764-0.024,1.877-0.064
		c1.475,0,2.903-0.07,4.292-0.208l23.125,34.523V98.322c0-1.388-0.021-2.224-0.07-2.513c-0.044-0.294-0.221-0.515-0.531-0.674
		c-0.315-0.153-1.389-0.234-3.213-0.234c-1.614,0-2.421-0.202-2.421-0.602c0-0.446,0.534-0.674,1.612-0.674h2.35h1.876h1.275h1.206
		h2.011h2.078C187.568,93.626,188.058,93.854,188.058,94.3"/>
	<path fill="#12100B" d="M208.24,139.652c0,0.377-0.269,0.567-0.808,0.567h-0.67c-0.271-0.129-3.307-0.201-9.115-0.201
		c-1.117,0-2.234,0.046-3.349,0.134c-0.585,0.05-1.479,0.066-2.686,0.066c-0.586,0-0.869-0.201-0.869-0.602
		c0-0.359,0.58-0.56,1.741-0.604c1.79-0.042,2.833-0.259,3.152-0.635c0.314-0.383,0.469-1.675,0.469-3.872V99.138
		c0-2.196-0.114-3.43-0.346-3.699c-0.265-0.447-1.517-0.714-3.729-0.806c-0.86-0.039-1.287-0.199-1.287-0.471
		c0-0.357,0.267-0.536,0.808-0.536h9.121c0.673,0,1.984,0.027,3.919,0.072l2.568-0.072c0.722,0,1.08,0.195,1.08,0.572
		c0,0.344-0.997,0.552-2.983,0.633c-1.138,0.048-1.83,0.25-2.075,0.606c-0.247,0.359-0.374,1.298-0.374,2.814v35.798
		c0,2.55,0.11,3.938,0.335,4.157c0.492,0.493,1.946,0.78,4.358,0.878C207.998,139.085,208.24,139.273,208.24,139.652"/>
	<path fill="#12100B" d="M255.031,139.785c0,0.377-0.332,0.567-1.007,0.567c-0.449,0-0.848-0.019-1.204-0.066l-8.515-0.267
		l-8.517,0.267c-0.312,0.048-0.645,0.066-1.003,0.066c-0.896,0-1.339-0.232-1.339-0.698c0-0.517,0.599-0.777,1.808-0.777
		c3.931-0.039,5.902-0.438,5.902-1.18c0-0.042-0.05-0.221-0.136-0.526l-0.551-1.775l-0.344-0.933
		c-0.407-1.39-1.387-4.452-2.948-9.194h-14.328c-2.681,7.152-4.017,11.267-4.017,12.338c0,0.629,0.263,1.003,0.801,1.139
		c0.134,0.042,1.248,0.131,3.353,0.267c1.294,0.044,1.943,0.272,1.943,0.672c0,0.446-0.583,0.667-1.745,0.667
		c-2.055,0-4.445-0.09-7.172-0.261c-0.671-0.052-1.359-0.072-2.079-0.072c-0.712,0-1.408,0.077-2.076,0.223
		c-0.352,0.076-0.645,0.11-0.871,0.11c-0.632,0-0.936-0.199-0.936-0.602c0-0.405,0.706-0.627,2.108-0.674
		c1.406-0.042,2.423-0.254,3.049-0.641c0.629-0.381,1.117-1.104,1.479-2.187c5.745-16.497,10.425-29.752,14.033-39.75
		c0.108-0.528,0.315-1.121,0.628-1.78l0.285-1.222c0.135-0.49,0.317-0.74,0.54-0.74c0.13,0,0.241,0.136,0.335,0.403
		c0.574,1.743,1.896,5.385,3.956,10.928c1.602,4.339,5.607,15.218,11.996,32.652c0.358,1.011,0.812,1.653,1.377,1.928
		c0.554,0.276,1.704,0.433,3.449,0.479C254.447,139.192,255.031,139.402,255.031,139.785 M236.873,123.728
		c-0.729-2.007-1.94-5.342-3.617-9.993l-3.226-9.288c-1.88,4.939-4.147,11.375-6.791,19.28H236.873z"/>
	<path fill="#12100B" d="M111.094,166.429c0,0.109-0.138,0.164-0.403,0.164h-0.21h-0.974h-1.086h-1.338h-1.031h-0.131
		c-0.267,0-0.401-0.059-0.401-0.177c0-0.125,0.184-0.186,0.554-0.186c0.652,0,1.044-0.07,1.188-0.212
		c0.064-0.066,0.098-0.488,0.098-1.283v-9.938c0,0.011-0.078,0.233-0.232,0.668c-0.512,1.547-1.258,3.868-2.235,6.967l-0.885,3.052
		c-0.177,0.601-0.306,0.896-0.381,0.896c-0.09,0-0.186-0.148-0.289-0.454c-0.368-1.166-1.412-4.07-3.127-8.704l-0.762-2.042v0.994
		v6.225c0,2.34,0.02,3.516,0.059,3.544c0.088,0.165,0.394,0.252,0.919,0.252c0.423,0,0.633,0.056,0.633,0.186
		c0,0.146-0.136,0.212-0.403,0.212c-0.167,0-0.322-0.009-0.458-0.04c-0.18-0.026-0.339-0.035-0.48-0.035l-2.204,0.075
		c-0.23,0-0.34-0.059-0.34-0.177c0-0.125,0.359-0.189,1.086-0.202c0.31,0,0.486-0.054,0.538-0.154
		c0.053-0.107,0.076-0.438,0.076-0.998v-9.19c0-1.057-0.008-1.637-0.037-1.727c-0.048-0.179-0.158-0.299-0.322-0.361
		c-0.169-0.066-0.522-0.116-1.077-0.154c-0.203-0.015-0.306-0.073-0.306-0.177c0-0.138,0.186-0.204,0.556-0.204h0.335h1.009
		c0.762,0,1.294-0.01,1.605-0.017c0.064,0.165,0.434,1.171,1.115,3.014c0.288,0.768,1.103,3.002,2.445,6.705
		c0.245-0.831,0.488-1.648,0.74-2.451l2.049-6.329c0.129-0.366,0.241-0.668,0.341-0.905l2.837-0.017c0.42,0,0.661,0.017,0.72,0.053
		c0.068,0.037,0.098,0.1,0.098,0.172c0,0.132-0.108,0.194-0.328,0.194c-0.355,0-0.597,0.014-0.724,0.035
		c-0.313,0.054-0.523,0.158-0.635,0.312c-0.066,0.088-0.099,0.838-0.099,2.244v8.935c0,0.515,0.053,0.817,0.154,0.905
		c0.166,0.116,0.582,0.168,1.247,0.168h0.114C110.967,166.266,111.094,166.32,111.094,166.429"/>
	<path fill="#12100B" d="M126.512,166.429c0,0.109-0.098,0.164-0.289,0.164c-0.125,0-0.241-0.004-0.342-0.015l-2.43-0.081
		l-2.439,0.081c-0.083,0.011-0.18,0.015-0.282,0.015c-0.257,0-0.386-0.066-0.386-0.2c0-0.144,0.173-0.218,0.519-0.218
		c1.123-0.015,1.685-0.127,1.685-0.337c0-0.009-0.011-0.066-0.037-0.15l-0.16-0.511l-0.099-0.263
		c-0.107-0.397-0.394-1.279-0.841-2.629h-4.096c-0.759,2.043-1.144,3.214-1.144,3.525c0,0.177,0.078,0.287,0.23,0.326
		c0.035,0.015,0.355,0.038,0.954,0.077c0.372,0.013,0.56,0.071,0.56,0.182c0,0.131-0.169,0.197-0.503,0.197
		c-0.583,0-1.268-0.023-2.045-0.075c-0.195-0.011-0.389-0.021-0.597-0.021c-0.203,0-0.405,0.021-0.595,0.07
		c-0.094,0.017-0.18,0.025-0.245,0.025c-0.179,0-0.272-0.059-0.272-0.177c0-0.114,0.206-0.177,0.604-0.186
		c0.405-0.015,0.694-0.075,0.873-0.183c0.178-0.108,0.322-0.318,0.419-0.624c1.646-4.717,2.98-8.505,4.014-11.36
		c0.027-0.147,0.088-0.318,0.18-0.508l0.081-0.353c0.037-0.134,0.088-0.208,0.155-0.208c0.041,0,0.064,0.041,0.096,0.114
		c0.162,0.495,0.545,1.539,1.128,3.122c0.458,1.237,1.602,4.349,3.426,9.33c0.103,0.288,0.233,0.472,0.396,0.549
		c0.157,0.081,0.486,0.129,0.987,0.139C126.347,166.262,126.512,166.32,126.512,166.429 M121.321,161.845
		c-0.205-0.576-0.547-1.525-1.029-2.854l-0.92-2.658c-0.545,1.412-1.189,3.25-1.942,5.512H121.321z"/>
	<path fill="#12100B" d="M138.464,162.819c0,1.099-0.42,2.036-1.254,2.809c-0.837,0.767-1.845,1.156-3.022,1.156
		c-0.685,0-1.506-0.206-2.465-0.629c-0.256-0.116-0.449-0.172-0.576-0.172c-0.153,0-0.249,0.177-0.287,0.53
		c-0.011,0.183-0.092,0.271-0.249,0.271c-0.127,0-0.193-0.069-0.193-0.231c0-0.102,0.007-0.172,0.019-0.232
		c0.106-0.77,0.158-1.491,0.158-2.155c0-0.135-0.017-0.488-0.041-1.073c-0.011-0.079-0.019-0.181-0.019-0.31
		c0-0.195,0.076-0.289,0.232-0.289c0.122,0,0.214,0.158,0.263,0.47c0.337,2.292,1.409,3.433,3.237,3.433
		c0.778,0,1.382-0.215,1.812-0.653c0.427-0.441,0.643-1.061,0.643-1.868c0-0.713-0.21-1.326-0.623-1.83
		c-0.412-0.503-1.125-1.003-2.134-1.506c-1.222-0.603-2.06-1.177-2.529-1.74c-0.475-0.558-0.707-1.253-0.707-2.084
		c0-1.06,0.342-1.937,1.018-2.625c0.687-0.692,1.55-1.034,2.603-1.034c0.431,0,1.029,0.144,1.795,0.438
		c0.265,0.102,0.472,0.155,0.595,0.155c0.142,0,0.236-0.029,0.284-0.076c0.037-0.053,0.079-0.189,0.118-0.408
		c0.028-0.123,0.1-0.183,0.213-0.183c0.125,0,0.19,0.074,0.19,0.223c0,0.104-0.009,0.179-0.017,0.232
		c-0.039,0.31-0.059,0.678-0.059,1.114c0,0.61,0.031,1.095,0.1,1.45l0.013,0.31c0.011,0.14-0.046,0.208-0.175,0.208
		c-0.138,0-0.232-0.146-0.28-0.44c-0.146-0.749-0.477-1.381-1.001-1.885c-0.521-0.505-1.108-0.757-1.758-0.757
		c-0.639,0-1.148,0.202-1.526,0.611c-0.376,0.408-0.56,0.967-0.56,1.67c0,0.817,0.271,1.469,0.823,1.974
		c0.3,0.277,0.964,0.674,1.988,1.184c1.202,0.605,2.063,1.213,2.586,1.83C138.197,161.316,138.464,162.029,138.464,162.819"/>
	<path fill="#12100B" d="M156.137,166.396c0,0.122-0.086,0.183-0.263,0.183h-0.158h-2.296h-2.242h-0.247
		c-0.243,0-0.365-0.052-0.365-0.149c0-0.094,0.158-0.158,0.48-0.18c0.659-0.064,0.992-0.168,0.992-0.322
		c0-0.164-1.738-2.242-5.225-6.229v5.514c0,0.457,0.068,0.731,0.208,0.838c0.144,0.11,0.518,0.164,1.129,0.164
		c0.144,0,0.211,0.061,0.211,0.189c0,0.114-0.084,0.175-0.265,0.175h-0.348h-2.659h-0.583h-0.681h-0.175
		c-0.188,0-0.287-0.061-0.287-0.165c0-0.128,0.235-0.187,0.708-0.199c0.435-0.017,0.687-0.108,0.766-0.287
		c0.039-0.062,0.059-0.472,0.059-1.208v-10.672c-0.011-0.264-0.368-0.399-1.059-0.399c-0.316,0-0.475-0.068-0.475-0.212
		c0-0.112,0.108-0.171,0.331-0.171c0.059,0,0.146,0.007,0.249,0.018c0.206,0.024,0.781,0.041,1.718,0.041
		c1.007,0,1.637-0.017,1.909-0.041c0.144-0.011,0.291-0.018,0.447-0.018c0.232,0,0.344,0.069,0.344,0.208
		c0,0.079-0.033,0.127-0.105,0.144c-0.072,0.019-0.289,0.035-0.672,0.051c-0.375,0.014-0.595,0.064-0.667,0.153
		c-0.072,0.092-0.105,0.376-0.105,0.861v4.673l1.624-1.624c2.47-2.479,3.698-3.771,3.698-3.87c0-0.165-0.298-0.244-0.902-0.228
		c-0.377,0.005-0.571-0.054-0.571-0.197c0-0.089,0.088-0.14,0.267-0.153c0.178-0.011,0.797-0.018,1.855-0.018h1.053
		c0.449,0,0.707,0.007,0.77,0.018c0.125,0.024,0.191,0.091,0.191,0.19c0,0.142-0.138,0.215-0.423,0.215
		c-0.593-0.019-0.968,0-1.132,0.037c-0.169,0.042-0.337,0.146-0.501,0.318c-0.825,0.873-2.084,2.176-3.777,3.92l-0.512,0.485
		l-0.249,0.272c0.077,0.087,0.394,0.431,0.957,1.033c1.072,1.11,2.612,2.894,4.617,5.346c0.429,0.511,0.712,0.815,0.876,0.923
		c0.16,0.103,0.471,0.162,0.928,0.191C155.957,166.239,156.137,166.299,156.137,166.396"/>
	<path fill="#12100B" d="M171.828,166.429c0,0.109-0.092,0.164-0.287,0.164c-0.125,0-0.243-0.004-0.347-0.015l-2.43-0.081
		l-2.432,0.081c-0.089,0.011-0.187,0.015-0.286,0.015c-0.258,0-0.387-0.066-0.387-0.2c0-0.144,0.176-0.218,0.516-0.218
		c1.127-0.015,1.688-0.127,1.688-0.337c0-0.009-0.011-0.066-0.038-0.15l-0.157-0.511l-0.1-0.263
		c-0.112-0.397-0.392-1.279-0.837-2.629h-4.098c-0.764,2.043-1.149,3.214-1.149,3.525c0,0.177,0.081,0.287,0.229,0.326
		c0.04,0.015,0.36,0.038,0.959,0.077c0.366,0.013,0.554,0.071,0.554,0.182c0,0.131-0.163,0.197-0.499,0.197
		c-0.585,0-1.267-0.023-2.045-0.075c-0.195-0.011-0.39-0.021-0.593-0.021s-0.405,0.021-0.595,0.07
		c-0.105,0.017-0.186,0.025-0.252,0.025c-0.177,0-0.267-0.059-0.267-0.177c0-0.114,0.201-0.177,0.602-0.186
		c0.403-0.015,0.698-0.075,0.875-0.183c0.175-0.108,0.318-0.318,0.419-0.624c1.644-4.717,2.978-8.505,4.012-11.36
		c0.033-0.147,0.09-0.318,0.179-0.508l0.086-0.353c0.033-0.134,0.089-0.208,0.153-0.208c0.031,0,0.066,0.041,0.098,0.114
		c0.16,0.495,0.537,1.539,1.127,3.122c0.456,1.237,1.596,4.349,3.426,9.33c0.101,0.288,0.231,0.472,0.392,0.549
		c0.158,0.081,0.486,0.129,0.987,0.139C171.666,166.262,171.828,166.32,171.828,166.429 M166.639,161.845
		c-0.209-0.576-0.551-1.525-1.039-2.854l-0.913-2.658c-0.539,1.412-1.188,3.25-1.944,5.512H166.639z"/>
	<path fill="#12100B" d="M185.731,156.674c0,0.166-0.074,0.245-0.225,0.245c-0.157,0-0.266-0.16-0.332-0.499
		c-0.021-0.225-0.046-0.455-0.073-0.687c-0.089-0.455-0.235-0.848-0.438-1.169c-0.271-0.42-0.71-0.688-1.321-0.798
		c-0.398-0.079-0.711-0.115-0.96-0.1c-0.6,0.016-0.962,0.028-1.088,0.035v11.563c0,0.466,0.114,0.757,0.361,0.871
		c0.127,0.061,0.484,0.103,1.071,0.112c0.154,0.013,0.23,0.066,0.23,0.164c0,0.104-0.102,0.165-0.308,0.165
		c-0.102,0-0.188-0.009-0.268-0.025c-0.766-0.026-1.305-0.035-1.627-0.035c-0.422,0-0.815,0.009-1.189,0.023
		c-0.368,0.028-0.845,0.037-1.417,0.037c-0.297,0-0.44-0.052-0.44-0.162c0-0.114,0.269-0.177,0.821-0.186
		c0.403,0,0.655-0.083,0.77-0.247c0.066-0.104,0.096-0.366,0.096-0.791v-11.49c-1.269,0.015-2.049,0.081-2.353,0.195
		c-0.814,0.291-1.28,1.077-1.418,2.354c-0.044,0.38-0.133,0.573-0.276,0.573c-0.154,0-0.227-0.131-0.227-0.405
		c0-0.137,0.01-0.276,0.021-0.42l0.039-0.435c0.038-0.591,0.096-1.362,0.167-2.317h0.865l3.912,0.053
		c0.459,0.014,1.173,0.014,2.142,0l3.177-0.053c0.028,0.712,0.111,1.769,0.251,3.172c0,0.046,0.009,0.09,0.019,0.144
		C185.728,156.622,185.731,156.663,185.731,156.674"/>
	<path fill="#12100B" d="M195.37,166.393c0,0.11-0.073,0.16-0.229,0.16h-0.193c-0.076-0.035-0.943-0.056-2.605-0.056
		c-0.316,0-0.635,0.015-0.961,0.037c-0.156,0.011-0.418,0.019-0.76,0.019c-0.174,0-0.253-0.056-0.253-0.172
		c0-0.101,0.166-0.154,0.499-0.167c0.512-0.017,0.811-0.074,0.902-0.185c0.081-0.106,0.131-0.479,0.131-1.104v-10.108
		c0-0.624-0.035-0.978-0.096-1.05c-0.076-0.134-0.433-0.211-1.07-0.233c-0.246-0.01-0.366-0.061-0.366-0.137
		c0-0.101,0.076-0.148,0.232-0.148h2.604c0.197,0,0.574,0.003,1.123,0.017l0.731-0.017c0.208,0,0.311,0.053,0.311,0.16
		c0,0.096-0.287,0.158-0.861,0.18c-0.312,0.012-0.512,0.078-0.584,0.179c-0.069,0.098-0.104,0.366-0.104,0.798v10.229
		c0,0.731,0.023,1.121,0.094,1.189c0.14,0.142,0.551,0.223,1.244,0.249C195.303,166.232,195.37,166.282,195.37,166.393"/>
	<path fill="#12100B" d="M211.555,153.386c0,0.1-0.114,0.142-0.324,0.142c-0.703,0.017-1.138,0.14-1.304,0.372
		c-0.154,0.138-0.703,1.237-1.646,3.286c-0.429,0.913-0.817,1.708-1.193,2.397c-0.254,0.475-0.397,0.795-0.436,0.97
		c-0.047,0.175-0.066,0.549-0.066,1.123v3.634c0,0.422,0.062,0.674,0.169,0.75c0.11,0.077,0.488,0.136,1.138,0.173
		c0.348,0.019,0.52,0.083,0.52,0.181c0,0.094-0.094,0.14-0.269,0.14h-0.232l-2.679-0.056c-0.757,0-1.377,0.015-1.857,0.037
		c-0.077,0.011-0.169,0.019-0.264,0.019c-0.186,0-0.273-0.058-0.273-0.177c0-0.125,0.146-0.195,0.439-0.201
		c0.705-0.023,1.117-0.09,1.243-0.191c0.127-0.104,0.192-0.414,0.192-0.918v-4.024c-0.127-0.282-0.495-1.027-1.111-2.243
		l-1.915-3.792c-0.188-0.372-0.42-0.786-0.692-1.239c-0.134-0.134-0.441-0.195-0.907-0.195c-0.464,0-0.696-0.069-0.696-0.213
		c0-0.102,0.098-0.155,0.301-0.155c0.274,0,0.808,0.014,1.618,0.045c0.456,0.009,0.788,0.017,0.996,0.017l2.215-0.029
		c0.092-0.019,0.192-0.032,0.307-0.032c0.229,0,0.343,0.068,0.343,0.197c0,0.116-0.216,0.173-0.649,0.173
		c-0.79,0-1.185,0.143-1.185,0.424c0,0.221,0.403,1.099,1.201,2.635l1.743,3.299c0.316-0.572,0.679-1.277,1.088-2.115l1.134-2.279
		c0.424-0.821,0.636-1.356,0.636-1.616c0-0.17-0.107-0.266-0.317-0.287c-0.449-0.066-0.756-0.089-0.909-0.081
		c-0.281,0.015-0.422-0.05-0.422-0.193c0-0.102,0.12-0.155,0.363-0.155h1.117h0.632C210.9,153.163,211.555,153.231,211.555,153.386"
		/>
	<path fill="#12100B" d="M225.629,166.429c0,0.109-0.092,0.164-0.283,0.164c-0.128,0-0.247-0.004-0.343-0.015l-2.439-0.081
		l-2.429,0.081c-0.096,0.011-0.188,0.015-0.29,0.015c-0.26,0-0.38-0.066-0.38-0.2c0-0.144,0.17-0.218,0.509-0.218
		c1.124-0.015,1.693-0.127,1.693-0.337c0-0.009-0.015-0.066-0.037-0.15l-0.165-0.511l-0.095-0.263
		c-0.11-0.397-0.397-1.279-0.841-2.629h-4.097c-0.764,2.043-1.146,3.214-1.146,3.525c0,0.177,0.079,0.287,0.231,0.326
		c0.037,0.015,0.361,0.038,0.954,0.077c0.374,0.013,0.56,0.071,0.56,0.182c0,0.131-0.166,0.197-0.499,0.197
		c-0.583,0-1.269-0.023-2.053-0.075c-0.189-0.011-0.385-0.021-0.593-0.021c-0.2,0-0.401,0.021-0.591,0.07
		c-0.104,0.017-0.184,0.025-0.25,0.025c-0.177,0-0.268-0.059-0.268-0.177c0-0.114,0.201-0.177,0.606-0.186
		c0.397-0.015,0.688-0.075,0.867-0.183c0.186-0.108,0.316-0.318,0.425-0.624c1.637-4.717,2.977-8.505,4.01-11.36
		c0.027-0.147,0.088-0.318,0.179-0.508l0.086-0.353c0.033-0.134,0.081-0.208,0.146-0.208c0.037,0,0.07,0.041,0.102,0.114
		c0.162,0.495,0.537,1.539,1.123,3.122c0.464,1.237,1.607,4.349,3.426,9.33c0.106,0.288,0.239,0.472,0.395,0.549
		c0.165,0.081,0.493,0.129,0.994,0.139C225.467,166.262,225.629,166.32,225.629,166.429 M220.438,161.845
		c-0.203-0.576-0.549-1.525-1.033-2.854l-0.917-2.658c-0.541,1.412-1.19,3.25-1.942,5.512H220.438z"/>
	<path fill-rule="evenodd" clip-rule="evenodd" fill="#12100B" d="M201.181,225.013c0,0,4.525,7.799,0.755,10.688
		c0,0-2.641,4.405-4.529,1.386c0,0-1.254-2.894-1.254-4.403c0,0-1.134,1.51-2.137,2.388c0,0-2.021,2.392-3.021,0.882
		c0,0-3.271-2.889-3.65-4.022c0,0-1.254,3.52-2.513,3.898c0,0-2.017-1.134-4.273-5.533c0,0-1.007,4.024-3.527,5.281
		c0,0-2.765-0.63-4.78-5.027c0,0-0.245,3.771-1.634,5.279c0,0-5.154-0.252-8.551-20.372c0,0,0.254-17.358,13.33-17.739
		c0,0,1.385,1.506,0.503,3.52c0,0,2.267-2.014,6.67-3.139c0,0,1.633,2.509,1.504,6.033c0,0,4.656-4.529,9.052-4.275
		c0,0,1.265,0.253,0.389,4.03c0,0,4.143-2.269,7.416-1.635c0,0,2.393,3.139,0.381,6.158c0,0,5.027-4.278,9.934-3.02
		c0,0,3.647,3.527-8.053,10.442c0,0,6.672-0.129,10.317,8.678C213.508,224.51,208.604,228.409,201.181,225.013"/>
	<path fill-rule="evenodd" clip-rule="evenodd" fill="#FFFFFF" d="M162.695,213.44c0,0,7.544-7.799,16.226,2.392
		C178.921,215.832,169.236,222.874,162.695,213.44"/>
	<path fill-rule="evenodd" clip-rule="evenodd" fill="#FFFFFF" d="M180.68,215.073c0,0,9.31-6.287,15.851,3.527
		c0,0-10.066,6.539-15.973-1.639C180.558,216.962,179.38,215.662,180.68,215.073"/>
	<path fill-rule="evenodd" clip-rule="evenodd" fill="#FFFFFF" d="M212.668,224.131c0,0-4.027-11.067-14.592-6.287
		c0,0-0.918,0.588-0.331,1.68C197.745,219.523,202.607,229.078,212.668,224.131"/>
	<path fill-rule="evenodd" clip-rule="evenodd" fill="#FFFFFF" d="M179.969,214.154c0,0,4.775-13.838,13.001-13.669
		C192.97,200.485,194.811,206.689,179.969,214.154"/>
	<path fill-rule="evenodd" clip-rule="evenodd" fill="#FFFFFF" d="M181.477,199.396c0,0-4.446,1.593-5.536,3.438
		c0,0-1.425,1.933-2.012,7.213c0,0,2.432,0.246,7.465-3.941c0,0,3.187-2.687,1.508-6.206
		C182.901,199.898,182.568,198.724,181.477,199.396"/>
	<path fill-rule="evenodd" clip-rule="evenodd" fill="#FFFFFF" d="M163.534,209.793c0,0,4.024-11.069,10.476-11.572
		c0,0,1.764-0.339,1.602,1.93c0,0-1.516,6.119-11.576,10.567C164.035,210.718,163.24,211.117,163.534,209.793"/>
	<path fill-rule="evenodd" clip-rule="evenodd" fill="#FFFFFF" d="M191.876,211.369c0,0-0.066-9.563,8.55-8.494
		c0,0,0.696-0.064,0.755,1.196c0,0,1.699,6.352-8.491,8.866C192.689,212.938,191.683,213.317,191.876,211.369"/>
	<path fill-rule="evenodd" clip-rule="evenodd" fill="#FFFFFF" d="M197.035,216.776c0,0,4.274-10.507,11.951-11.135
		c0,0,2.573-0.502,2.194,1.32c0,0-1.318,6.291-13.962,10.378C197.219,217.34,196.653,217.28,197.035,216.776"/>
	<path fill-rule="evenodd" clip-rule="evenodd" fill="#FFFFFF" d="M163.256,216.334c0,0,1.199,12.896,6.414,18.048
		c0,0,0.882,1.067,1.451-0.442c0,0,3.209-7.86-5.788-16.537C165.333,217.402,163.256,215.073,163.256,216.334"/>
	<path fill-rule="evenodd" clip-rule="evenodd" fill="#FFFFFF" d="M172.314,220.167c0,0-1.698,11.827,4.716,14.467
		c0,0,0.819,0.567,1.948-1.766c0,0,3.781-7.101-5.848-13.014C173.131,219.854,172.441,219.164,172.314,220.167"/>
	<path fill-rule="evenodd" clip-rule="evenodd" fill="#FFFFFF" d="M180.12,218.726c0,0-0.698,13.394,4.838,16.221
		c0,0,6.161-5.09-3.332-15.722C181.626,219.225,180.046,217.402,180.12,218.726"/>
	<path fill-rule="evenodd" clip-rule="evenodd" fill="#FFFFFF" d="M189.923,222.309c0,0-3.96,8.359,1.514,13.207
		c0,0,1.005,0.813,1.883-0.445c0,0,6.103-4.842-2.706-13.14C190.613,221.931,190.177,221.614,189.923,222.309"/>
	<path fill-rule="evenodd" clip-rule="evenodd" fill="#FFFFFF" d="M197.845,220.549c0,0,0.946,1.693,1.891,3.396
		c0,0,4.525,6.66,1.889,11.064c0,0-2.456,4.217-3.969,0.942c0,0-1.692-3.395-0.374-8.804c0,0,0.374-3.018-0.062-6.165
		C197.219,220.983,196.907,219.538,197.845,220.549"/>
	<path fill-rule="evenodd" clip-rule="evenodd" fill="#12100B" d="M197.136,217.257c0,0,3.519-2.456,5.576-4.592
		c0,0,2.388-2.288,2.642-2.644c0,0,0.479-0.541,0.521-0.25c0,0-0.21,0.605-1.722,1.845c0,0-0.999,0.942-1.612,1.653
		C202.541,213.27,199.921,215.683,197.136,217.257"/>
	<path fill-rule="evenodd" clip-rule="evenodd" fill="#12100B" d="M197.745,218.032c0,0-0.09,0.399,1.526,0.774
		c0,0,1.574,0.484,2.479,0.921c0,0,4.082,1.303,5.405,2.018c0,0,0.186,0.166-0.164,0.186c0,0-1.196-0.256-4.345-1.635
		c0,0-2.538-1.071-3.518-1.382c0,0-1.637-0.549-1.724-0.164C197.406,218.75,197.572,218.118,197.745,218.032"/>
	<path fill-rule="evenodd" clip-rule="evenodd" fill="#12100B" d="M197.281,221.55c0,0,2.39,6.271,2.117,9.288
		c0,0,0,0.48-0.269,0.358c0,0-0.151-0.314-0.066-0.756c0,0,0.066-3.96-1.738-8.45L197.281,221.55z"/>
	<path fill-rule="evenodd" clip-rule="evenodd" fill="#12100B" d="M189.929,222.014c0,0,0.098,1.887,0.441,2.673
		c0,0,1.545,4.312,1.354,6.068c0,0-0.091,0.381-0.249-0.062c0,0-0.471-3.049-0.724-4.085c0,0-0.913-2.644-0.974-3.213
		c0,0-0.225-0.441-0.473,0.129C189.305,223.523,189.744,222.143,189.929,222.014"/>
	<path fill-rule="evenodd" clip-rule="evenodd" fill="#12100B" d="M180.046,216.082c0,0,3.026-0.083,4.155,0.125
		c0,0,4.401,0.63,4.993,0.836c0,0-0.045,0.131-0.682,0c0,0-3.894-0.499-4.604-0.626c0,0-3.838-0.441-3.646,0.104
		C180.262,216.521,180.12,216.373,180.046,216.082"/>
	<path fill-rule="evenodd" clip-rule="evenodd" fill="#12100B" d="M191.77,212.559c0,0,3.689-5.26,5.996-7.042
		c0,0,0.422-0.333,0.375-0.021c0,0-1.271,1.305-1.822,1.778c0,0-3.644,3.755-4.006,5.267c0,0-0.087,0.312,0.108,0.523
		C192.421,213.063,192.059,213.295,191.77,212.559"/>
	<path fill-rule="evenodd" clip-rule="evenodd" fill="#12100B" d="M180.786,213.8c0,0,0.751-1.154,1.782-2.225
		c0,0,0.983-1.073,1.277-1.487c0,0,0.626-0.959,1.362-1.406c0,0,0.904-0.775,1.256-1.613c0,0,0.963-1.828,2.115-2.078
		c0,0,0.216,0.021,0.087,0.21c0,0-0.378,0.254-0.737,0.399c0,0-0.876,0.524-1.752,2.143
		C186.177,207.742,184.434,210.088,180.786,213.8"/>
	<path fill-rule="evenodd" clip-rule="evenodd" fill="#12100B" d="M173.85,209.541c0,0,3.561-5.027,5.74-7.086
		c0,0,0.213-0.271,0.504-0.125c0,0,0.043,0.087-0.125,0.147c0,0-0.503,0.146-0.969,0.817c0,0-1.59,2.261-3.096,3.773
		c0,0-1.742,2.219-1.976,2.932l-0.127,0.046L173.85,209.541z"/>
	<path fill-rule="evenodd" clip-rule="evenodd" fill="#12100B" d="M164.604,210.53c0,0,1.09-0.717,2.453-2.895
		c0,0,2.201-3.652,3.416-4.636c0,0,0.312-0.46,0.44-0.71c0,0,0.188-0.339,0.333-0.087c0,0,0.066,0.651-1.069,1.548
		c0,0-1.252,1.302-2.265,2.857c0,0-2.097,2.556-1.34,3.06L164.604,210.53z"/>
	<path fill-rule="evenodd" clip-rule="evenodd" fill="#12100B" d="M162.695,213.44c0,0,2.497-0.355,4.803,0.48
		c0,0,0.646,0.189,1.926,0.147c0,0,1.97,0.021,2.956,0.732c0,0,0.183,0.232-0.403,0.106c0,0-1.338-0.672-2.719-0.625
		c0,0-1.681,0.08-2.791-0.466c0,0-1.09-0.547-3.628-0.147L162.695,213.44z"/>
	<path fill-rule="evenodd" clip-rule="evenodd" fill="#12100B" d="M163.256,216.334c0,0,1.764,3.036,3.316,6.516
		c0,0,1.485,3.188,1.485,4.068c0,0-0.146,0.276-0.188-0.123c0,0-0.987-3.347-1.803-4.553c0,0-2.434-5.179-2.765-4.882
		L163.256,216.334z"/>
	<path fill-rule="evenodd" clip-rule="evenodd" fill="#12100B" d="M173.596,219.985c0,0-0.484-0.045,0.04,1.192
		c0,0,2.747,7.04,3.041,7.629c0,0,0.168,0.479-0.129,0.424c0,0-0.208-0.152-0.354-0.926c0,0-1.219-3.714-1.656-4.404
		c0,0-1.281-3.544-2.184-3.979c0,0,0.025-0.696,0.591-0.359L173.596,219.985z"/>
	<path fill-rule="evenodd" clip-rule="evenodd" fill="#12100B" d="M179.969,218.303c0,0,1.071,0.922,1.443,3.794
		c0,0,0.441,1.427,0.801,2.267c0,0,1.464,4.426,1.57,5.261c0,0,0,0.232,0.23,0.188c0,0,0.605,0.401-1.133-4.507
		c0,0-1.572-3.96-1.612-4.949c0,0-0.146-0.961-0.376-1.925C180.893,218.432,180.029,217.527,179.969,218.303"/>
	<path fill-rule="evenodd" clip-rule="evenodd" fill="#12100B" d="M123.392,225.013c0,0-4.534,7.799-0.756,10.688
		c0,0,2.638,4.405,4.529,1.386c0,0,1.253-2.894,1.253-4.403c0,0,1.138,1.51,2.139,2.388c0,0,2.014,2.392,3.02,0.882
		c0,0,3.266-2.889,3.649-4.022c0,0,1.257,3.52,2.515,3.898c0,0,2.012-1.134,4.28-5.533c0,0,1.001,4.024,3.518,5.281
		c0,0,2.765-0.63,4.783-5.027c0,0,0.245,3.771,1.631,5.279c0,0,5.156-0.252,8.553-20.372c0,0-0.252-17.358-13.333-17.739
		c0,0-1.386,1.506-0.502,3.52c0,0-2.263-2.014-6.667-3.139c0,0-1.631,2.509-1.509,6.033c0,0-4.65-4.529-9.06-4.275
		c0,0-1.254,0.253-0.375,4.03c0,0-4.148-2.269-7.421-1.635c0,0-2.388,3.139-0.376,6.158c0,0-5.029-4.278-9.939-3.02
		c0,0-3.643,3.527,8.053,10.442c0,0-6.665-0.129-10.312,8.678C111.064,224.51,115.969,228.409,123.392,225.013"/>
	<path fill-rule="evenodd" clip-rule="evenodd" fill="#FFFFFF" d="M161.879,213.44c0,0-7.552-7.799-16.227,2.392
		C145.653,215.832,155.333,222.874,161.879,213.44"/>
	<path fill-rule="evenodd" clip-rule="evenodd" fill="#FFFFFF" d="M143.895,215.073c0,0-9.308-6.287-15.853,3.527
		c0,0,10.065,6.539,15.978-1.639C144.02,216.962,145.189,215.662,143.895,215.073"/>
	<path fill-rule="evenodd" clip-rule="evenodd" fill="#FFFFFF" d="M111.9,224.131c0,0,4.028-11.067,14.59-6.287
		c0,0,0.926,0.588,0.339,1.68C126.829,219.523,121.961,229.078,111.9,224.131"/>
	<path fill-rule="evenodd" clip-rule="evenodd" fill="#FFFFFF" d="M144.604,214.154c0,0-4.779-13.838-13.001-13.669
		C131.603,200.485,129.76,206.689,144.604,214.154"/>
	<path fill-rule="evenodd" clip-rule="evenodd" fill="#FFFFFF" d="M143.092,199.396c0,0,4.446,1.593,5.534,3.438
		c0,0,1.431,1.933,2.012,7.213c0,0-2.432,0.246-7.458-3.941c0,0-3.187-2.687-1.515-6.206
		C141.666,199.898,142.004,198.724,143.092,199.396"/>
	<path fill-rule="evenodd" clip-rule="evenodd" fill="#FFFFFF" d="M161.038,209.793c0,0-4.022-11.069-10.481-11.572
		c0,0-1.758-0.339-1.592,1.93c0,0,1.506,6.119,11.569,10.567C160.534,210.718,161.334,211.117,161.038,209.793"/>
	<path fill-rule="evenodd" clip-rule="evenodd" fill="#FFFFFF" d="M132.698,211.369c0,0,0.063-9.563-8.553-8.494
		c0,0-0.694-0.064-0.753,1.196c0,0-1.695,6.352,8.489,8.866C131.88,212.938,132.886,213.317,132.698,211.369"/>
	<path fill-rule="evenodd" clip-rule="evenodd" fill="#FFFFFF" d="M127.538,216.776c0,0-4.275-10.507-11.948-11.135
		c0,0-2.579-0.502-2.198,1.32c0,0,1.32,6.291,13.958,10.378C127.35,217.34,127.92,217.28,127.538,216.776"/>
	<path fill-rule="evenodd" clip-rule="evenodd" fill="#FFFFFF" d="M161.309,216.334c0,0-1.193,12.896-6.412,18.048
		c0,0-0.884,1.067-1.447-0.442c0,0-3.214-7.86,5.787-16.537C159.236,217.402,161.309,215.073,161.309,216.334"/>
	<path fill-rule="evenodd" clip-rule="evenodd" fill="#FFFFFF" d="M152.251,220.167c0,0,1.701,11.827-4.713,14.467
		c0,0-0.817,0.567-1.95-1.766c0,0-3.778-7.101,5.849-13.014C151.438,219.854,152.127,219.164,152.251,220.167"/>
	<path fill-rule="evenodd" clip-rule="evenodd" fill="#FFFFFF" d="M144.453,218.726c0,0,0.692,13.394-4.842,16.221
		c0,0-6.162-5.09,3.337-15.722C142.948,219.225,144.519,217.402,144.453,218.726"/>
	<path fill-rule="evenodd" clip-rule="evenodd" fill="#FFFFFF" d="M134.649,222.309c0,0,3.958,8.359-1.512,13.207
		c0,0-1.007,0.813-1.889-0.445c0,0-6.097-4.842,2.703-13.14C133.952,221.931,134.396,221.614,134.649,222.309"/>
	<path fill-rule="evenodd" clip-rule="evenodd" fill="#FFFFFF" d="M126.72,220.549c0,0-0.942,1.693-1.887,3.396
		c0,0-4.523,6.66-1.883,11.064c0,0,2.452,4.217,3.961,0.942c0,0,1.696-3.395,0.379-8.804c0,0-0.379-3.018,0.059-6.165
		C127.35,220.983,127.661,219.538,126.72,220.549"/>
	<path fill-rule="evenodd" clip-rule="evenodd" fill="#12100B" d="M127.437,217.257c0,0-3.524-2.456-5.578-4.592
		c0,0-2.392-2.288-2.642-2.644c0,0-0.48-0.541-0.524-0.25c0,0,0.209,0.605,1.723,1.845c0,0,1.001,0.942,1.609,1.653
		C122.024,213.27,124.647,215.683,127.437,217.257"/>
	<path fill-rule="evenodd" clip-rule="evenodd" fill="#12100B" d="M126.829,218.032c0,0,0.083,0.399-1.532,0.774
		c0,0-1.569,0.484-2.475,0.921c0,0-4.087,1.303-5.405,2.018c0,0-0.193,0.166,0.166,0.186c0,0,1.193-0.256,4.335-1.635
		c0,0,2.539-1.071,3.522-1.382c0,0,1.636-0.549,1.723-0.164C127.164,218.75,126.995,218.118,126.829,218.032"/>
	<path fill-rule="evenodd" clip-rule="evenodd" fill="#12100B" d="M127.286,221.55c0,0-2.388,6.271-2.116,9.288
		c0,0,0,0.48,0.271,0.358c0,0,0.149-0.314,0.066-0.756c0,0-0.066-3.96,1.74-8.45L127.286,221.55z"/>
	<path fill-rule="evenodd" clip-rule="evenodd" fill="#12100B" d="M134.633,222.014c0,0-0.092,1.887-0.437,2.673
		c0,0-1.541,4.312-1.355,6.068c0,0,0.096,0.381,0.254-0.062c0,0,0.473-3.049,0.724-4.085c0,0,0.913-2.644,0.968-3.213
		c0,0,0.226-0.441,0.482,0.129C135.27,223.523,134.826,222.143,134.633,222.014"/>
	<path fill-rule="evenodd" clip-rule="evenodd" fill="#12100B" d="M144.519,216.082c0,0-3.018-0.083-4.15,0.125
		c0,0-4.403,0.63-4.991,0.836c0,0,0.042,0.131,0.676,0c0,0,3.892-0.499,4.604-0.626c0,0,3.838-0.441,3.651,0.104
		C144.309,216.521,144.453,216.373,144.519,216.082"/>
	<path fill-rule="evenodd" clip-rule="evenodd" fill="#12100B" d="M132.803,212.559c0,0-3.693-5.26-5.994-7.042
		c0,0-0.423-0.333-0.377-0.021c0,0,1.276,1.305,1.823,1.778c0,0,3.645,3.755,4.002,5.267c0,0,0.083,0.312-0.104,0.523
		C132.151,213.063,132.506,213.295,132.803,212.559"/>
	<path fill-rule="evenodd" clip-rule="evenodd" fill="#12100B" d="M143.786,213.8c0,0-0.753-1.154-1.782-2.225
		c0,0-0.988-1.073-1.277-1.487c0,0-0.628-0.959-1.362-1.406c0,0-0.906-0.775-1.257-1.613c0,0-0.967-1.828-2.117-2.078
		c0,0-0.214,0.021-0.083,0.21c0,0,0.372,0.254,0.731,0.399c0,0,0.876,0.524,1.762,2.143
		C138.399,207.742,140.137,210.088,143.786,213.8"/>
	<path fill-rule="evenodd" clip-rule="evenodd" fill="#12100B" d="M150.723,209.541c0,0-3.561-5.027-5.74-7.086
		c0,0-0.214-0.271-0.504-0.125c0,0-0.042,0.087,0.125,0.147c0,0,0.504,0.146,0.963,0.817c0,0,1.596,2.261,3.102,3.773
		c0,0,1.742,2.219,1.97,2.932l0.131,0.046L150.723,209.541z"/>
	<path fill-rule="evenodd" clip-rule="evenodd" fill="#12100B" d="M159.966,210.53c0,0-1.088-0.717-2.452-2.895
		c0,0-2.2-3.652-3.415-4.636c0,0-0.314-0.46-0.44-0.71c0,0-0.188-0.339-0.339-0.087c0,0-0.059,0.651,1.07,1.548
		c0,0,1.261,1.302,2.266,2.857c0,0,2.101,2.556,1.344,3.06L159.966,210.53z"/>
	<path fill-rule="evenodd" clip-rule="evenodd" fill="#12100B" d="M161.879,213.44c0,0-2.5-0.355-4.803,0.48
		c0,0-0.652,0.189-1.928,0.147c0,0-1.973,0.021-2.957,0.732c0,0-0.189,0.232,0.398,0.106c0,0,1.336-0.672,2.725-0.625
		c0,0,1.675,0.08,2.787-0.466c0,0,1.09-0.547,3.627-0.147L161.879,213.44z"/>
	<path fill-rule="evenodd" clip-rule="evenodd" fill="#12100B" d="M161.309,216.334c0,0-1.758,3.036-3.308,6.516
		c0,0-1.49,3.188-1.49,4.068c0,0,0.146,0.276,0.188-0.123c0,0,0.985-3.347,1.804-4.553c0,0,2.43-5.179,2.769-4.882L161.309,216.334z
		"/>
	<path fill-rule="evenodd" clip-rule="evenodd" fill="#12100B" d="M150.977,219.985c0,0,0.479-0.045-0.042,1.192
		c0,0-2.749,7.04-3.043,7.629c0,0-0.164,0.479,0.129,0.424c0,0,0.208-0.152,0.357-0.926c0,0,1.215-3.714,1.657-4.404
		c0,0,1.278-3.544,2.18-3.979c0,0-0.022-0.696-0.585-0.359L150.977,219.985z"/>
	<path fill-rule="evenodd" clip-rule="evenodd" fill="#12100B" d="M144.604,218.303c0,0-1.073,0.922-1.445,3.794
		c0,0-0.443,1.427-0.799,2.267c0,0-1.475,4.426-1.57,5.261c0,0,0,0.232-0.229,0.188c0,0-0.615,0.401,1.127-4.507
		c0,0,1.572-3.96,1.611-4.949c0,0,0.153-0.961,0.387-1.925C143.685,218.432,144.541,217.527,144.604,218.303"/>
</g>
</svg>
